<svg xmlns="http://www.w3.org/2000/svg" width="430" height="430" style="width:100%;height:100%;transform:translate3d(0,0,0);content-visibility:visible" viewBox="0 0 430 430"><defs><clipPath id="f"><path d="M0 0h430v430H0z"/></clipPath><clipPath id="n"><path d="M0 0h430v430H0z"/></clipPath><clipPath id="o"><path d="M0 0h430v430H0z"/></clipPath><clipPath id="m"><path d="M0 0h430v430H0z"/></clipPath><clipPath id="j"><path d="M0 0h430v430H0z"/></clipPath><clipPath id="l"><path d="M0 0h430v430H0z"/></clipPath><clipPath id="k"><path d="M0 0h430v430H0z"/></clipPath><clipPath id="g"><path d="M0 0h430v430H0z"/></clipPath><clipPath id="h"><path d="M0 0h430v430H0z"/></clipPath><clipPath id="e"><path d="M0 0h430v430H0z"/></clipPath><mask id="p" mask-type="alpha"><use xmlns:ns1="http://www.w3.org/1999/xlink" ns1:href="#a"/></mask><mask id="i" mask-type="alpha" maskUnits="userSpaceOnUse"><g filter="url(#b)"><path fill="#fff" d="M0 0h430v430H0z" opacity="0"/><use xmlns:ns2="http://www.w3.org/1999/xlink" ns2:href="#c"/></g></mask><filter id="b" width="100%" height="100%" x="0%" y="0%" filterUnits="objectBoundingBox"><feComponentTransfer in="SourceGraphic"><feFuncA tableValues="1.0 0.0" type="table"/></feComponentTransfer></filter><path id="a" style="display:none"/><g id="c" clip-path="url(#e)" style="display:none"><g style="display:none"><path fill-opacity="0" stroke-linecap="round" stroke-linejoin="round" class="secondary"/><path fill-opacity="0" stroke-linecap="round" stroke-linejoin="round" class="primary"/><path/></g><g style="display:none"><path fill-opacity="0" stroke-linecap="round" stroke-linejoin="round" class="secondary"/><path fill-opacity="0" stroke-linecap="round" stroke-linejoin="round" class="primary"/><path/></g><g style="display:none"><path fill-opacity="0" stroke-linecap="round" stroke-linejoin="round" class="secondary"/><path fill-opacity="0" stroke-linecap="round" stroke-linejoin="round" class="primary"/><path/></g></g></defs><g clip-path="url(#f)"><g clip-path="url(#g)" style="display:none"><g clip-path="url(#h)" style="display:none"><g mask="url(#i)" style="display:none"><path fill="none" class="primary"/></g><g fill="none" style="display:none"><path class="secondary"/><path class="primary"/></g><g fill="none" style="display:none"><path class="secondary"/><path class="primary"/></g><g fill="none" style="display:none"><path class="secondary"/><path class="primary"/></g><path fill="none" class="primary" style="display:none"/></g></g><g clip-path="url(#j)" style="display:none"><path fill="none" class="secondary" style="display:none"/><g clip-path="url(#k)" style="display:none"><path fill="none" class="secondary" style="display:none"/></g><path fill="none" class="secondary" style="display:none"/><path fill="none" class="secondary" style="display:none"/><path fill="none" class="secondary" style="display:none"/><g clip-path="url(#l)" style="display:none"><path fill="none" class="secondary" style="display:none"/></g><path fill="none" class="primary" style="display:none"/></g><g fill="none" stroke-linejoin="round" clip-path="url(#m)" style="display:block"><path stroke="#B678EC" stroke-width="33" d="M37.5-112.5h-75v225h75z" class="secondary" style="display:block" transform="translate(144.998 239.945)scale(.534)"/><path stroke="#B678EC" stroke-width="32.1" d="M115.269 115V-35.699c0-43.797-35.527-79.301-79.351-79.301A88.2 88.2 0 0 0-19.16-95.692l-21.799 17.428v-27.438h-73.518V115h73.518V-9.383c0-22.825 18.516-41.329 41.355-41.329S41.75-32.208 41.75-9.383V115z" class="secondary" style="display:block" transform="translate(252.294 237.51)scale(.544)"/><path stroke="#B678EC" stroke-width="31.5" d="M0-40c22.076 0 40 17.924 40 40S22.076 40 0 40-40 22.076-40 0s17.924-40 40-40z" class="secondary" style="display:block" transform="translate(144.584 132.595)scale(.564)"/><path stroke="#FFF" stroke-width="18" d="M160-140v280c0 11.038-8.962 20-20 20h-280c-11.038 0-20-8.962-20-20v-280c0-11.038 8.962-20 20-20h280c11.038 0 20 8.962 20 20z" class="primary" style="display:block" transform="translate(215 215)"/></g><g clip-path="url(#n)" style="display:none"><path fill="none" class="secondary" style="display:none"/><g clip-path="url(#o)" style="display:none"><path fill="none" class="secondary" style="display:none"/></g><g mask="url(#p)" style="display:none"><path fill="none" class="secondary"/></g><path fill="none" class="secondary" style="display:none"/><path fill="none" class="primary" style="display:none"/><path fill="none" class="primary" style="display:none"/></g></g></svg>