<svg xmlns="http://www.w3.org/2000/svg" width="430" height="430" style="width:100%;height:100%;transform:translate3d(0,0,0);content-visibility:visible" viewBox="0 0 430 430"><defs><filter id="a" width="100%" height="100%" x="0%" y="0%" filterUnits="objectBoundingBox"><feComponentTransfer in="SourceGraphic"><feFuncA tableValues="1.0 0.0" type="table"/></feComponentTransfer></filter><filter id="c" width="100%" height="100%" x="0%" y="0%" filterUnits="objectBoundingBox"><feComponentTransfer in="SourceGraphic"><feFuncA tableValues="1.0 0.0" type="table"/></feComponentTransfer></filter><filter id="e" width="100%" height="100%" x="0%" y="0%" filterUnits="objectBoundingBox"><feComponentTransfer in="SourceGraphic"><feFuncA tableValues="1.0 0.0" type="table"/></feComponentTransfer></filter><filter id="g" width="100%" height="100%" x="0%" y="0%" filterUnits="objectBoundingBox"><feComponentTransfer in="SourceGraphic"><feFuncA tableValues="1.0 0.0" type="table"/></feComponentTransfer></filter><filter id="i" width="100%" height="100%" x="0%" y="0%" filterUnits="objectBoundingBox"><feComponentTransfer in="SourceGraphic"><feFuncA tableValues="1.0 0.0" type="table"/></feComponentTransfer></filter><filter id="k" width="100%" height="100%" x="0%" y="0%" filterUnits="objectBoundingBox"><feComponentTransfer in="SourceGraphic"><feFuncA tableValues="1.0 0.0" type="table"/></feComponentTransfer></filter><filter id="m" width="100%" height="100%" x="0%" y="0%" filterUnits="objectBoundingBox"><feComponentTransfer in="SourceGraphic"><feFuncA tableValues="1.0 0.0" type="table"/></feComponentTransfer></filter><mask id="y" mask-type="alpha" maskUnits="userSpaceOnUse"><g filter="url(#a)"><path fill="#fff" d="M0 0h430v430H0z" opacity="0"/><use xmlns:ns1="http://www.w3.org/1999/xlink" ns1:href="#b"/></g></mask><mask id="x" mask-type="alpha" maskUnits="userSpaceOnUse"><g filter="url(#c)"><path fill="#fff" d="M0 0h430v430H0z" opacity="0"/><use xmlns:ns2="http://www.w3.org/1999/xlink" ns2:href="#d"/></g></mask><mask id="w" mask-type="alpha" maskUnits="userSpaceOnUse"><g filter="url(#e)"><path fill="#fff" d="M0 0h430v430H0z" opacity="0"/><use xmlns:ns3="http://www.w3.org/1999/xlink" ns3:href="#f"/></g></mask><mask id="t" mask-type="alpha" maskUnits="userSpaceOnUse"><g filter="url(#g)"><path fill="#fff" d="M0 0h430v430H0z" opacity="0"/><use xmlns:ns4="http://www.w3.org/1999/xlink" ns4:href="#h"/></g></mask><mask id="q" mask-type="alpha" maskUnits="userSpaceOnUse"><g filter="url(#i)"><path fill="#fff" d="M0 0h430v430H0z" opacity="0"/><use xmlns:ns5="http://www.w3.org/1999/xlink" ns5:href="#j"/></g></mask><mask id="r" mask-type="alpha" maskUnits="userSpaceOnUse"><g filter="url(#k)"><path fill="#fff" d="M0 0h430v430H0z" opacity="0"/><use xmlns:ns6="http://www.w3.org/1999/xlink" ns6:href="#l"/></g></mask><mask id="s" mask-type="alpha" maskUnits="userSpaceOnUse"><g filter="url(#m)"><path fill="#fff" d="M0 0h430v430H0z" opacity="0"/><use xmlns:ns7="http://www.w3.org/1999/xlink" ns7:href="#n"/></g></mask><path id="f" fill="red" d="M139.257-159.172H-140.57v298.344h279.793z" style="display:block" transform="translate(215 215)"/><path id="b" fill="red" d="m-159-50-.5 248h318V-50L58 52.5S36 28-1 28s-57.5 23-57.5 23z" style="display:block" transform="translate(215 215)"/><path id="d" fill="red" d="M139.257-159.172H-140.57v298.344h279.793z" style="display:block" transform="translate(215 215)"/><path id="l" style="display:none"/><path id="h" style="display:none"/><path id="j" style="display:none"/><clipPath id="o"><path d="M0 0h430v430H0z"/></clipPath><clipPath id="v"><path d="M0 0h430v430H0z"/></clipPath><clipPath id="u"><path d="M0 0h430v430H0z"/></clipPath><clipPath id="p"><path d="M0 0h430v430H0z"/></clipPath><g id="n" style="display:none"><path/><path/></g></defs><g clip-path="url(#o)"><g clip-path="url(#p)" style="display:none"><g mask="url(#q)" style="display:none"><path fill="none" class="primary"/></g><g mask="url(#r)" style="display:none"><path fill="none" class="primary"/></g><g fill="none" mask="url(#s)" style="display:none"><path class="secondary"/><path class="secondary"/><path class="secondary"/><path class="secondary"/><path class="secondary"/><path class="secondary"/></g><path fill="none" class="primary" style="display:none"/><g mask="url(#t)" style="display:none"><path fill="none" class="primary"/></g><path fill="none" class="primary" style="display:none"/></g><g fill="none" clip-path="url(#u)" style="display:none"><g style="display:none"><path class="primary"/><path class="primary"/></g><path class="primary" style="display:none"/><g style="display:none"><path class="secondary"/><path class="secondary"/><path class="secondary"/><path class="secondary"/><path class="secondary"/><path class="secondary"/></g><path class="primary" style="display:none"/><path class="primary" style="display:none"/></g><g clip-path="url(#v)" style="display:block"><g mask="url(#w)" style="display:block"><path fill="none" stroke="#FFF" stroke-linecap="round" stroke-linejoin="round" stroke-width="19.425" d="M55.828 164.58v210.84h318.344V164.605z" class="primary"/></g><g mask="url(#x)" style="display:block"><path fill="none" stroke="#FFF" stroke-linecap="round" stroke-linejoin="round" stroke-width="19.425" d="m56.171 164.093 132.56-124.536C203.156 26 226.582 26 241.009 39.555L374.074 164.5" class="primary"/></g><g mask="url(#y)" style="display:block"><path fill="none" stroke="#B678EC" stroke-linecap="round" stroke-linejoin="round" stroke-width="18" d="M110.626 92.368h104.236m-104.236 30.623h209.52m-209.52 30.622h209.52m-209.52 30.622h209.52m-209.52 30.622h209.52m34.111-159.029H74.43v298.344h279.793z" class="secondary"/></g><path fill="none" stroke="#FFF" stroke-linecap="round" stroke-linejoin="round" stroke-width="19.425" d="M159.213 117.109 55.139 25.586C24.993-1.143-23.963-1.144-54.112 25.582l-104.578 91.911" class="primary" style="display:block" transform="translate(214.861 238.174)"/><path fill="none" stroke="#FFF" stroke-linecap="round" stroke-linejoin="round" stroke-width="19.425" d="m-63.137 40.939-95.553 96.093m317.903-.44L60.389 37.151" class="primary" style="display:block" transform="rotate(180 107.57 150.913)"/></g></g></svg>